Coordinates
version=1
nRows=21
nColumns=12
inDegrees=yes

Units are S.I. units (second, meters, Newtons, ...)
Angles are in degrees

endheader
time	SC_y	SC_z	SC_x	AC_y	AC_z	AC_x	GH_y	GH_z	GH_yy	EL_x	PS_y
       0.0              -23.97          27.01          40.72           53.5         -6.806         -19.89          113.1          81.35          50.98          111.5          135.3
   0.01086              -23.98          27.01          40.73           53.5         -6.807         -19.89          113.1          81.34          50.97          111.5          135.3
   0.02172              -23.98           27.0          40.73           53.5         -6.807         -19.89          113.1          81.34          50.95          111.6          135.3
   0.03258              -23.99           27.0          40.74           53.5         -6.808         -19.89          113.0          81.33          50.93          111.6          135.3
   0.04344              -23.99           27.0          40.75           53.5         -6.809         -19.89          113.0          81.33          50.91          111.6          135.3
   0.05429               -24.0           27.0          40.76           53.5         -6.809         -19.89          112.9          81.32          50.89          111.6          135.3
   0.06515              -24.01          26.99          40.77           53.5          -6.81         -19.89          112.9          81.31          50.86          111.6          135.3
   0.07601              -24.01          26.99          40.77           53.5         -6.811         -19.88          112.8           81.3          50.84          111.6          135.3
   0.08687              -24.02          26.99          40.78           53.5         -6.812         -19.88          112.7          81.29          50.81          111.6          135.3
   0.09773              -24.03          26.98           40.8           53.5         -6.813         -19.88          112.7          81.29          50.79          111.6          135.3
    0.1086              -24.04          26.98          40.81           53.5         -6.814         -19.88          112.6          81.28          50.76          111.6          135.3
    0.1194              -24.04          26.97          40.82           53.5         -6.815         -19.88          112.5          81.27          50.72          111.6          135.3
    0.1303              -24.05          26.97          40.83           53.5         -6.816         -19.87          112.5          81.25          50.69          111.6          135.3
    0.1412              -24.06          26.96          40.85           53.5         -6.817         -19.87          112.4          81.24          50.65          111.6          135.3
     0.152              -24.08          26.96          40.86           53.5         -6.819         -19.87          112.3          81.23          50.61          111.6          135.3
    0.1629              -24.09          26.95          40.88           53.5          -6.82         -19.87          112.2          81.21          50.56          111.6          135.3
    0.1737               -24.1          26.94           40.9           53.5         -6.822         -19.86          112.1           81.2          50.51          111.6          135.3
    0.1846              -24.12          26.94          40.92           53.5         -6.824         -19.86          111.9          81.18          50.46          111.6          135.2
    0.1955              -24.13          26.93          40.94           53.5         -6.826         -19.86          111.8          81.16           50.4          111.6          135.2
    0.2063              -24.15          26.92          40.96           53.5         -6.828         -19.85          111.7          81.14          50.34          111.7          135.2
    0.2172              -24.17          26.91          40.99          53.51          -6.83         -19.85          111.5          81.12          50.27          111.7          135.2
